<svg xmlns="http://www.w3.org/2000/svg" viewBox="0 0 100.71 112.82"><defs><style>.cls-1{fill:#86c3d0;}.cls-2{fill:#fff;}.cls-3{font-size:12px;fill:#1d1d1b;font-family:MyriadPro-Regular, Myriad Pro;}.cls-4{letter-spacing:-0.01em;}.cls-5{letter-spacing:0em;}.cls-6{letter-spacing:0em;}.cls-7{letter-spacing:0em;}.cls-8{letter-spacing:-0.01em;}</style></defs><g id="API"><path class="cls-1" d="M50.35,13.37a43,43,0,1,0,43.05,43A43,43,0,0,0,50.35,13.37Z"/><path class="cls-2" d="M73.26,78.65H41.14a2.56,2.56,0,0,1-2.55-2.56V55.62a1,1,0,0,1,1-1H74.84a1,1,0,0,1,1,1V76.09A2.55,2.55,0,0,1,73.26,78.65ZM40.55,56.59v19.5a.59.59,0,0,0,.59.6H73.26a.6.6,0,0,0,.6-.6V56.59Z"/><path class="cls-2" d="M74.84,56.59H39.57a1,1,0,0,1-1-1v-5.2a2.56,2.56,0,0,1,2.55-2.55H73.26a2.56,2.56,0,0,1,2.56,2.55v5.2A1,1,0,0,1,74.84,56.59Zm-34.29-2H73.86V50.42a.6.6,0,0,0-.6-.59H41.14a.6.6,0,0,0-.59.59Z"/><path class="cls-2" d="M68,49.83H61.14a1,1,0,0,1-1-1,1,1,0,0,1,1-1.06H68a1,1,0,0,1,1,1v.08A1,1,0,0,1,68,49.83Z"/><path class="cls-2" d="M68,49.75H32.71a1,1,0,0,1-1-1v-5.2A2.56,2.56,0,0,1,34.29,41H66.41A2.56,2.56,0,0,1,69,43.57v5.2A1,1,0,0,1,68,49.75Zm-34.3-2H67V43.57a.6.6,0,0,0-.6-.6H34.29a.6.6,0,0,0-.6.6Z"/><path class="cls-2" d="M39.57,71.8H34.29a2.56,2.56,0,0,1-2.56-2.56V48.77a1,1,0,0,1,1-1H61.14a1,1,0,0,1,1,1v.08a1,1,0,0,1-1,1h-20a.6.6,0,0,0-.59.59v20.4A1,1,0,0,1,39.57,71.8Zm-5.88-22V69.24a.6.6,0,0,0,.6.6h4.3V50.42a2.46,2.46,0,0,1,.09-.67Z"/><path class="cls-2" d="M32.71,64.94H27.44a2.55,2.55,0,0,1-2.55-2.55V36.72a2.56,2.56,0,0,1,2.55-2.56H59.56a2.56,2.56,0,0,1,2.56,2.56V42a1,1,0,0,1-1,1H34.29a.6.6,0,0,0-.6.6V64A1,1,0,0,1,32.71,64.94ZM27.44,36.12a.6.6,0,0,0-.6.6V62.39a.6.6,0,0,0,.6.59h4.29V43.57A2.56,2.56,0,0,1,34.29,41H60.16V36.72a.6.6,0,0,0-.6-.6Z"/><path class="cls-2" d="M64.75,52.23a.92.92,0,1,1-.91-.91A.91.91,0,0,1,64.75,52.23Z"/><path class="cls-2" d="M68.11,52.23a.92.92,0,1,1-.91-.91A.92.92,0,0,1,68.11,52.23Z"/><path class="cls-2" d="M71.47,52.23a.92.92,0,1,1-.92-.91A.92.92,0,0,1,71.47,52.23Z"/></g><g id="HOSTING"><text class="cls-3" transform="translate(17.93 -4.98)"><tspan class="cls-4">A</tspan><tspan x="7.27" y="0">ssi</tspan><tspan class="cls-4" x="19.58" y="0">g</tspan><tspan class="cls-5" x="26.22" y="0">n </tspan><tspan class="cls-6" x="35.42" y="0">a</tspan><tspan x="41.16" y="0">tt</tspan><tspan class="cls-7" x="49.1" y="0">r</tspan><tspan x="53.08" y="0">ibu</tspan><tspan class="cls-8" x="69.32" y="0">t</tspan><tspan x="73.22" y="0">es</tspan></text></g></svg>